<svg xmlns="http://www.w3.org/2000/svg" viewBox="0 0 460 460"><path d="M372.2 218.837c.091 29.485-5.538 59.474-17.522 88.415C330.358 365.97 284.471 409.224 230 431.638c58.899 0 117.849-22.263 162.788-67.202 44.939-44.938 67.343-103.889 67.211-162.788a229.808 229.808 0 00-87.799 17.189z" fill="#3d9ae2"/><path d="M105.322 307.252c-11.984-28.94-17.612-58.93-17.522-88.415A229.79 229.79 0 00.001 201.648c-.131 58.899 22.273 117.85 67.211 162.788 44.939 44.939 103.889 67.202 162.778 67.191-54.471-22.413-100.348-65.657-124.668-124.375z" fill="#b3d8f4"/><path d="M354.678 307.252c11.984-28.94 17.612-58.93 17.522-88.415-.091-30.322-6.234-60.13-17.723-87.699-27.629 11.368-53.019 28.093-74.535 49.488 11.368 27.195 17.643 57.053 17.643 88.384 0 63.56-25.844 121.077-67.585 162.627 54.471-22.413 100.358-65.667 124.678-124.385z" fill="#78b9eb"/><path d="M180.058 180.627c-21.516-21.395-46.906-38.12-74.535-49.488-11.489 27.568-17.633 57.376-17.723 87.699-.091 29.485 5.538 59.474 17.522 88.415 24.32 58.718 70.197 101.962 124.668 124.376-41.731-41.549-67.575-99.067-67.575-162.617 0-31.332 6.275-61.19 17.643-88.385z" fill="#d1e7f8"/><circle cx="230" cy="48.362" r="20" fill="#3d9ae2"/><circle cx="160.641" cy="75.368" r="19.996" fill="#b3d8f4"/><circle cx="299.359" cy="75.368" r="19.996" fill="#3d9ae2"/><path d="M230 431.634c41.74-41.55 67.58-99.06 67.58-162.62 0-31.33-6.27-61.19-17.64-88.39-11.69-28-28.78-53.18-49.94-74.25v325.26z" fill="#3d9ae2"/><path d="M180.06 180.624c-11.37 27.2-17.64 57.06-17.64 88.39 0 63.55 25.84 121.06 67.58 162.62v-325.26c-21.16 21.07-38.25 46.25-49.94 74.25z" fill="#78b9eb"/></svg>